<svg width="1905" height="489" viewBox="0 0 1905 489" fill="none" xmlns="http://www.w3.org/2000/svg">
<path d="M201.917 483.836C193.727 483.316 185.767 484.936 177.697 486.016C166.007 487.596 154.527 485.986 143.877 480.536C140.897 479.006 138.317 478.906 135.107 479.926C118.307 485.296 101.297 488.066 83.8267 483.056C78.3667 481.486 73.2167 479.166 68.1267 476.746C58.5967 472.236 49.6167 472.776 40.8467 478.736C35.4767 482.386 29.9267 485.846 23.5167 487.456C21.1967 488.036 18.8067 488.536 16.4267 488.606C4.96672 488.946 -2.09327 479.966 0.556727 468.526C2.08673 461.936 5.61672 456.476 10.9267 452.426C30.6067 437.396 52.2167 428.006 77.6567 430.406C80.0467 430.626 82.4467 430.956 84.7667 431.516C86.9067 432.036 88.9567 432.956 91.5467 433.876C91.5467 430.836 91.5467 428.176 91.5467 425.506C91.5767 337.646 91.2167 249.776 91.7467 161.916C92.2167 83.0862 147.187 17.8262 224.517 2.91624C311.357 -13.8338 396.717 43.2962 414.417 129.996C416.627 140.836 417.827 151.776 417.827 162.846C417.827 251.696 417.877 340.546 417.827 429.406C417.827 431.996 418.487 433.816 420.317 435.706C442.807 458.916 470.287 473.196 501.287 481.266C504.887 482.206 508.477 483.166 512.437 484.216C510.857 485.816 509.367 485.306 508.087 485.316C469.747 485.396 431.407 485.586 393.067 485.386C381.247 485.326 369.767 482.806 359.177 477.186C357.987 476.556 357.077 476.186 355.737 477.096C342.657 485.956 327.937 486.726 312.937 485.246C307.177 484.676 301.447 483.846 295.647 483.746C295.647 481.916 294.297 481.546 292.907 481.056C288.387 479.456 284.047 477.516 279.827 475.156C262.687 465.536 255.017 449.586 258.037 430.116C258.557 426.786 260.347 423.616 259.667 419.196C243.057 447.016 224.957 472.226 192.757 482.936C196.097 484.826 198.067 484.956 201.917 483.846V483.836ZM263.557 313.516C265.747 313.876 266.087 312.016 266.697 310.716C269.077 305.606 271.487 300.496 273.607 295.276C294.187 244.646 306.367 192.056 309.787 137.506C310.617 124.256 310.897 110.966 308.467 97.7762C307.747 93.8662 306.317 90.5162 302.917 88.2262C304.807 85.6662 306.587 86.4462 307.827 88.6962C308.837 90.5162 309.537 92.5762 310.017 94.6162C312.707 106.146 312.957 117.896 312.467 129.626C310.457 177.686 301.087 224.356 285.617 269.836C270.777 313.476 249.897 353.736 218.587 388.046C200.147 408.256 179.657 425.866 154.597 437.476C133.647 447.186 112.657 447.996 91.8067 436.966C88.4267 435.176 84.9867 433.526 81.1267 433.026C53.7367 429.456 30.5967 439.026 10.1467 456.376C5.14672 460.616 2.45673 466.456 2.43673 473.236C2.40673 482.156 10.1767 488.436 18.7967 486.116C25.3867 484.346 31.9567 482.416 37.5667 478.126C48.0467 470.106 59.2167 469.216 70.9267 475.396C72.2967 476.116 73.7467 476.706 75.1667 477.326C85.8467 481.996 96.9667 484.056 108.637 483.176C118.997 482.396 128.877 479.396 138.857 476.876L143.757 476.986C147.807 480.896 153.117 482.006 158.277 482.926C179.247 486.666 198.057 480.846 215.147 468.926C232.207 457.026 244.127 440.596 254.567 422.916C272.967 391.746 284.527 357.786 294.787 323.376C307.857 279.506 315.847 234.596 320.057 189.036C322.407 163.666 323.587 138.236 321.067 112.796C320.207 104.066 318.777 95.3962 315.227 87.2762C312.177 80.2962 307.387 79.5862 302.197 85.2062C301.627 85.8262 301.177 86.5462 300.667 87.2162C298.207 85.8362 295.737 84.4562 293.277 83.0762C293.977 83.1262 294.877 82.9062 295.347 83.2562C298.607 85.7362 300.547 83.8562 303.017 81.6562C306.857 78.2262 309.377 78.3662 313.907 81.4062C315.237 82.2962 316.537 82.4362 317.917 82.0462C319.087 81.7162 320.287 81.5762 321.137 82.3862C324.387 85.5162 328.447 87.5962 331.517 91.0062C337.007 97.1362 339.557 104.556 341.487 112.266C347.447 136.086 347.917 160.556 349.757 184.836C350.887 199.736 351.247 214.696 352.377 229.606C353.937 249.986 355.477 270.346 358.277 290.606C360.567 307.246 363.587 323.706 367.997 339.906C371.747 353.676 376.497 367.106 382.567 380.016C390.227 396.296 399.187 411.796 411.407 425.166C412.277 426.126 413.087 428.006 414.647 427.306C416.137 426.636 415.387 424.756 415.387 423.426C415.407 345.036 415.447 266.646 415.337 188.256C415.317 175.266 415.607 162.276 414.727 149.266C413.377 129.486 407.777 110.876 399.417 93.2562C386.957 66.9962 368.257 45.8762 343.937 29.6362C318.597 12.7062 290.737 3.92625 260.507 2.51625C245.507 1.81625 230.657 3.58624 216.037 7.21624C189.527 13.7862 166.307 26.4462 146.177 44.8162C139.617 50.8062 133.667 57.3362 128.097 64.3162C114.317 81.5762 104.867 100.936 99.1067 122.116C94.8567 137.726 93.7567 153.796 93.6167 169.906C93.4867 186.136 93.5867 202.366 93.5867 218.596C93.5867 287.786 93.5867 356.986 93.6167 426.176C93.6167 428.556 94.1267 430.936 94.2567 433.326C94.3467 434.986 95.2667 435.646 96.6267 436.416C107.477 442.566 119.267 442.796 131.227 442.236C133.157 442.146 133.567 441.016 133.607 439.456C136.627 442.476 145.617 439.766 147.807 435.186C149.097 439.266 151.687 436.336 153.067 435.726C171.207 427.696 186.767 415.736 201.297 402.526C212.437 392.396 222.357 381.016 231.517 368.996C244.037 352.576 254.647 335.026 263.807 316.556C264.277 315.616 265.727 314.346 263.567 313.506L263.557 313.516ZM389.867 482.806C396.777 483.566 403.707 483.126 410.617 483.126C436.477 483.106 462.337 482.986 488.197 482.906H495.957C494.547 481.606 493.137 481.496 491.837 481.096C463.717 472.256 438.777 458.226 418.177 436.796C392.787 410.376 376.607 378.896 366.657 343.986C353.977 299.516 351.457 253.666 348.587 207.876C346.777 179.096 345.827 150.236 341.177 121.716C339.567 111.856 337.367 101.976 330.627 93.9562C330.407 93.2862 329.967 92.4062 329.297 92.8462C328.687 93.2462 329.527 93.9962 329.787 94.5662C336.777 114.416 338.687 135.136 339.577 155.916C341.657 204.406 337.667 252.596 331.697 300.676C328.617 325.506 323.897 350.146 322.327 375.166C320.757 400.096 323.587 424.266 334.627 447.066C345.827 470.196 364.477 481.686 389.877 482.816L389.867 482.806ZM316.607 84.5662C322.557 98.4462 323.947 112.526 324.337 126.686C326.067 189.136 316.397 250.176 300.847 310.406C293.067 340.546 282.107 369.656 270.807 398.626C267.217 407.836 263.367 416.976 261.137 426.656C256.557 446.536 262.697 462.296 280.077 472.336C299.077 483.316 319.597 486.336 341.087 481.296C345.897 480.166 350.447 478.256 354.647 475.046C340.707 464.526 332.487 450.416 327.017 434.486C318.637 410.096 318.287 385.046 321.467 359.826C326.687 318.446 333.197 277.216 335.887 235.536C338.377 197.076 339.667 158.646 333.737 120.366C332.177 110.306 330.437 100.256 325.467 91.1462C323.657 87.8362 321.337 85.1862 316.597 84.5662H316.607Z" fill="#663319"/>
<path d="M201.917 483.836C198.067 484.946 196.097 484.816 192.757 482.926C224.957 472.216 243.057 447.006 259.667 419.186C260.337 423.606 258.557 426.786 258.037 430.106C255.007 449.576 262.687 465.536 279.827 475.146C284.037 477.506 288.387 479.446 292.907 481.046C294.297 481.536 295.647 481.916 295.647 483.736C290.157 483.826 284.667 484.006 279.177 483.996C255.907 483.966 232.647 483.886 209.377 483.826H209.467C206.947 483.826 204.427 483.816 201.907 483.806L201.917 483.836Z" fill="#663319"/>
<path d="M209.467 483.856H209.377L209.427 484.176L209.467 483.856Z" fill="#663319"/>
<path d="M133.607 439.456C133.567 441.026 133.157 442.156 131.227 442.246C119.267 442.806 107.477 442.586 96.6268 436.426C95.2668 435.656 94.3468 435.006 94.2568 433.336C94.1268 430.946 93.6168 428.566 93.6168 426.186C93.5768 356.996 93.5868 287.796 93.5868 218.606C93.5868 202.376 93.4868 186.146 93.6168 169.916C93.7468 153.806 94.8568 137.736 99.1068 122.126C104.867 100.946 114.317 81.5863 128.097 64.3263C133.667 57.3463 139.617 50.8163 146.177 44.8263C166.317 26.4563 189.527 13.7963 216.037 7.22627C230.657 3.60627 245.507 1.83628 260.507 2.52628C290.737 3.92628 318.597 12.7063 343.937 29.6463C368.247 45.8963 386.947 67.0063 399.417 93.2663C407.787 110.896 413.387 129.496 414.727 149.276C415.617 162.296 415.317 175.276 415.337 188.266C415.447 266.656 415.407 345.046 415.387 423.436C415.387 424.766 416.137 426.646 414.647 427.316C413.077 428.026 412.277 426.136 411.407 425.176C399.187 411.796 390.227 396.306 382.567 380.026C376.497 367.116 371.737 353.686 367.997 339.916C363.587 323.716 360.567 307.256 358.277 290.616C355.487 270.356 353.937 249.986 352.377 229.616C351.237 214.706 350.877 199.736 349.757 184.846C347.917 160.566 347.447 136.086 341.487 112.276C339.557 104.566 337.007 97.1463 331.517 91.0163C328.457 87.5963 324.387 85.5163 321.137 82.3963C320.287 81.5763 319.087 81.7263 317.917 82.0563C316.537 82.4463 315.237 82.3063 313.907 81.4163C309.377 78.3763 306.857 78.2363 303.017 81.6663C300.547 83.8763 298.607 85.7463 295.347 83.2663C294.877 82.9163 293.977 83.1263 293.277 83.0863C292.327 82.8563 291.367 82.6463 290.427 82.3763C274.537 77.9163 260.817 86.7663 258.527 103.056C257.997 106.846 258.247 110.666 258.677 114.476C260.007 126.436 262.777 138.126 265.507 149.816C270.787 172.416 275.237 195.156 275.137 218.486C275.067 233.736 273.527 248.596 260.407 259.176C258.947 260.356 259.477 261.996 259.257 263.486C258.877 266.056 260.237 268.836 258.287 271.196C257.167 271.076 256.057 270.856 254.937 270.856C219.887 270.856 184.827 270.876 149.777 270.906C148.527 270.906 147.227 270.656 146.047 271.336C145.577 271.326 145.107 271.306 144.637 271.296C144.117 270.796 143.787 270.836 143.697 271.606C143.687 281.496 143.667 291.376 143.657 301.266C136.547 305.466 133.177 312.056 131.657 319.866C129.987 328.446 131.367 336.716 133.867 344.946C137.927 358.326 143.077 371.396 145.757 385.166C147.797 395.616 148.257 406.016 142.517 415.656C140.107 419.696 136.897 422.656 131.757 422.866C128.447 423.006 127.197 425.426 129.377 427.896C131.407 430.196 131.897 432.806 132.507 435.516C132.557 436.986 132.407 438.506 133.577 439.686L133.607 439.436V439.456Z" fill="#663319"/>
<path d="M147.797 435.186C150.197 425.916 153.377 416.866 154.687 407.306C156.637 393.106 154.857 379.136 152.607 365.166C151.147 356.106 149.417 347.086 149.597 337.836C149.857 324.466 156.767 315.776 169.837 312.816C177.247 311.136 184.707 311.066 191.957 313.756C207.587 319.546 223.027 319.526 238.657 313.366C246.747 310.176 255.267 310.586 263.547 313.516C265.707 314.356 264.257 315.626 263.787 316.566C254.627 335.036 244.007 352.586 231.497 369.006C222.337 381.026 212.417 392.406 201.277 402.536C186.747 415.736 171.187 427.696 153.047 435.736C151.667 436.346 149.087 439.276 147.787 435.196L147.797 435.186Z" fill="#663319"/>
<path d="M205.777 271.776C204.247 271.776 202.727 271.776 201.197 271.776C194.517 271.776 187.837 271.776 181.157 271.776C177.927 271.776 174.707 271.776 171.477 271.776C162.997 271.636 154.507 271.496 146.027 271.346C147.207 270.666 148.507 270.916 149.757 270.916C184.807 270.886 219.867 270.866 254.917 270.866C256.037 270.866 257.147 271.086 258.267 271.206C257.357 271.386 256.457 271.576 255.547 271.756C238.957 271.756 222.367 271.756 205.777 271.766V271.776Z" fill="white"/>
<path d="M144.627 271.316C144.317 271.416 144.007 271.526 143.687 271.626C143.777 270.856 144.107 270.816 144.627 271.316Z" fill="white"/>
<path d="M267.787 358.816C258.617 379.516 245.337 397.426 229.947 413.796C207.377 437.796 181.177 456.586 149.967 467.826C126.307 476.346 103.307 476.356 81.2269 462.546C73.7869 457.896 65.6368 454.646 56.6868 453.816C44.7668 452.706 34.0469 455.896 24.3169 462.646C19.3469 466.096 16.4168 470.656 17.1568 476.996L17.2168 476.936C14.0568 473.876 15.2769 470.556 16.9169 467.446C19.9169 461.746 25.3468 458.726 30.8568 456.216C44.3668 450.056 58.1368 449.536 71.9268 455.426C75.8168 457.086 79.7769 458.736 83.3469 460.976C104.547 474.266 126.767 473.766 149.317 465.636C186.357 452.276 215.927 428.596 240.527 398.306C250.697 385.776 259.247 372.136 267.097 358.056C267.327 358.316 267.557 358.566 267.797 358.826L267.787 358.816Z" fill="#663319"/>
<path d="M267.787 358.816C267.557 358.566 267.327 358.306 267.087 358.046C268.417 354.846 269.777 351.666 271.837 348.846L271.947 348.946C271.577 352.666 269.527 355.666 267.787 358.806V358.816Z" fill="#663319"/>
<path d="M276.467 338.986C276.407 338.896 276.347 338.796 276.297 338.706C276.427 338.636 276.567 338.556 276.697 338.486C276.707 338.596 276.757 338.726 276.727 338.816C276.697 338.896 276.567 338.936 276.477 338.986H276.467Z" fill="white"/>
<path d="M271.847 348.846C271.837 348.136 271.877 347.446 272.687 347.146L272.737 347.176C272.867 347.936 272.887 348.656 271.957 348.946L271.847 348.846Z" fill="#663319"/>
<path d="M17.1567 476.996C17.3267 477.326 17.4967 477.666 17.6767 477.996C16.7367 477.996 17.3967 477.286 17.2267 476.946L17.1667 476.996H17.1567Z" fill="#663319"/>
<path d="M538.709 71.9113L521.776 69.0525V55.4184H592.146V69.0525L571.035 71.9113V203.195L618.095 201.215L631.949 160.093L649.761 162.512L642.944 218.808H521.336V205.614L538.709 203.414V71.9113ZM678.721 71.9113L661.129 69.0525V55.4184H778.338L781.197 92.3624H765.804L758.547 70.5918L711.047 68.6127V127.767L741.614 127.107L745.133 109.075H759.207V162.292H745.133L741.614 143.38L711.047 142.721V204.734L764.264 202.095L777.019 173.947L793.512 178.565L787.794 218.808H661.349V205.614L678.721 203.414V71.9113ZM875.004 71.9113L857.851 69.0525V55.4184H890.617C895.602 55.4184 902.052 55.1252 909.969 54.5388C911.875 54.3922 914.147 54.2456 916.786 54.099C919.425 53.9524 922.503 53.8791 926.022 53.8791C948.159 53.8791 963.625 57.031 972.422 63.335C981.364 69.4923 985.836 78.7283 985.836 91.043C985.836 101.892 982.537 110.981 975.94 118.311C969.49 125.495 960.987 129.893 950.431 131.506C964.945 131.359 976.307 134.657 984.516 141.401C992.873 148.145 997.051 157.528 997.051 169.549C997.051 184.796 991.7 197.037 980.998 206.273C970.296 215.509 952.41 220.127 927.341 220.127C920.744 220.127 914.66 219.907 909.089 219.468C907.623 219.468 905.131 219.321 901.612 219.028C898.094 218.881 894.502 218.808 890.837 218.808H857.631V205.614L875.004 203.414V71.9113ZM906.89 126.668C908.503 126.814 911.801 126.888 916.786 126.888H927.121C936.064 126.888 942.735 124.102 947.133 118.531C951.531 112.96 953.73 105.117 953.73 95.0013C953.73 85.3255 951.457 78.2885 946.913 73.8904C942.368 69.4923 934.818 67.2933 924.262 67.2933C921.477 67.2933 915.686 67.5865 906.89 68.1729V126.668ZM906.89 204.294C910.262 205.614 916.712 206.273 926.242 206.273C938.703 206.273 947.719 203.341 953.29 197.477C958.861 191.613 961.646 183.11 961.646 171.968C961.646 161.266 959.081 153.643 953.95 149.098C948.965 144.407 940.975 142.061 929.98 142.061C917.665 142.061 909.969 142.208 906.89 142.501V204.294ZM1082.17 221.227C1058.28 221.227 1040.39 213.75 1028.51 198.796C1016.64 183.843 1010.7 163.465 1010.7 137.663C1010.7 120.803 1013.78 105.997 1019.94 93.2421C1026.24 80.4876 1035.04 70.6651 1046.33 63.7748C1057.62 56.8844 1070.59 53.4393 1085.25 53.4393C1109.44 53.4393 1127.55 60.6228 1139.57 74.9899C1151.73 89.2105 1157.82 109.149 1157.82 134.804C1157.82 151.81 1154.59 166.91 1148.14 180.105C1141.84 193.152 1132.97 203.268 1121.53 210.451C1110.1 217.635 1096.98 221.227 1082.17 221.227ZM1084.37 66.8535C1072.35 66.8535 1062.97 72.7909 1056.22 84.6658C1049.48 96.5406 1046.11 114.133 1046.11 137.443C1046.11 160.46 1049.33 177.979 1055.78 190C1062.38 201.875 1071.76 207.813 1083.93 207.813C1095.81 207.813 1105.11 201.582 1111.86 189.121C1118.6 176.513 1121.97 158.407 1121.97 134.804C1121.97 111.934 1118.75 94.928 1112.3 83.7861C1105.85 72.4977 1096.54 66.8535 1084.37 66.8535ZM1248.76 220.567C1226.47 220.567 1209.91 214.996 1199.06 203.854C1188.21 192.712 1182.79 175.193 1182.79 151.297V71.9113L1168.27 69.0525V55.4184H1234.68V69.0525L1215.99 72.1312V154.156C1215.99 189.047 1228.38 206.493 1253.16 206.493C1265.32 206.493 1274.34 202.022 1280.2 193.079C1286.07 183.99 1289 171.308 1289 155.035V72.1312L1270.09 69.0525V55.4184H1325.07V69.0525L1310.11 71.9113V153.276C1310.11 176.146 1304.54 193.079 1293.4 204.074C1282.4 215.069 1267.52 220.567 1248.76 220.567ZM1353.47 71.9113L1336.98 69.0525V55.4184H1369.08C1373.92 55.4184 1380.44 55.1252 1388.65 54.5388C1390.56 54.3922 1393.42 54.2456 1397.23 54.099C1401.19 53.9524 1404.71 53.8791 1407.79 53.8791C1434.76 53.8791 1454.92 60.6228 1468.26 74.1103C1481.75 87.5978 1488.49 106.73 1488.49 131.506C1488.49 148.805 1485.12 164.198 1478.37 177.686C1471.78 191.173 1462.32 201.729 1450.01 209.352C1437.69 216.829 1423.33 220.567 1406.91 220.567C1402.65 220.567 1395.98 220.274 1386.89 219.687C1378.39 219.101 1372.6 218.808 1369.52 218.808H1336.1V205.614L1353.47 203.414V71.9113ZM1385.36 204.074C1390.34 205.394 1397.3 206.053 1406.25 206.053C1420.91 205.76 1432.41 199.896 1440.77 188.461C1449.13 176.879 1453.31 159.58 1453.31 136.563C1453.31 114.719 1449.2 97.8601 1440.99 85.9852C1432.78 73.9637 1420.03 67.953 1402.73 67.953C1399.06 67.953 1395.54 68.1729 1392.17 68.6127C1388.95 69.0525 1386.67 69.3457 1385.36 69.4923V204.074ZM1572.88 221.227C1548.98 221.227 1531.1 213.75 1519.22 198.796C1507.35 183.843 1501.41 163.465 1501.41 137.663C1501.41 120.803 1504.49 105.997 1510.64 93.2421C1516.95 80.4876 1525.74 70.6651 1537.03 63.7748C1548.32 56.8844 1561.3 53.4393 1575.96 53.4393C1600.15 53.4393 1618.25 60.6228 1630.27 74.9899C1642.44 89.2105 1648.52 109.149 1648.52 134.804C1648.52 151.81 1645.3 166.91 1638.85 180.105C1632.54 193.152 1623.68 203.268 1612.24 210.451C1600.81 217.635 1587.68 221.227 1572.88 221.227ZM1575.08 66.8535C1563.05 66.8535 1553.67 72.7909 1546.93 84.6658C1540.18 96.5406 1536.81 114.133 1536.81 137.443C1536.81 160.46 1540.04 177.979 1546.49 190C1553.09 201.875 1562.47 207.813 1574.64 207.813C1586.51 207.813 1595.82 201.582 1602.56 189.121C1609.31 176.513 1612.68 158.407 1612.68 134.804C1612.68 111.934 1609.45 94.928 1603 83.7861C1596.55 72.4977 1587.24 66.8535 1575.08 66.8535ZM1683.61 71.9113L1664.92 69.0525V55.4184H1735.29V69.0525L1715.93 71.9113V203.414L1735.29 205.833V218.808H1664.92V205.614L1683.61 203.414V71.9113ZM1753.79 205.614L1771.16 203.414V71.9113L1754.67 68.8326V55.4184H1786.55C1789.34 55.4184 1792.42 55.3451 1795.79 55.1985C1799.16 55.0519 1801.73 54.9053 1803.49 54.7587C1811.11 54.1723 1817.41 53.8791 1822.4 53.8791C1837.5 53.8791 1849.59 55.4184 1858.68 58.4971C1867.77 61.5757 1874.37 66.2671 1878.47 72.571C1882.58 78.8749 1884.63 87.158 1884.63 97.4202C1884.63 107.536 1881.92 116.918 1876.49 125.568C1871.07 134.218 1863.23 140.155 1852.96 143.38C1858.83 145.873 1864.03 150.417 1868.58 157.015C1873.12 163.612 1877.96 172.188 1883.09 182.743C1886.76 189.927 1889.54 195.131 1891.45 198.357C1893.5 201.435 1895.48 203.195 1897.38 203.634L1904.64 205.833V218.808H1867.26C1864.91 218.808 1862.42 216.462 1859.78 211.771C1857.29 206.933 1853.99 199.383 1849.89 189.121C1845.05 177.099 1840.87 167.717 1837.35 160.973C1833.83 154.229 1830.09 150.051 1826.14 148.438H1803.49V203.414L1823.72 205.614V218.808H1753.79V205.614ZM1823.72 135.024C1832.07 135.024 1838.6 132.019 1843.29 126.008C1847.98 119.997 1850.33 110.981 1850.33 98.9596C1850.33 88.2575 1847.98 80.341 1843.29 75.2098C1838.74 70.0787 1830.83 67.5132 1819.54 67.5132C1815.43 67.5132 1811.92 67.7331 1808.98 68.1729C1806.2 68.4661 1804.37 68.6127 1803.49 68.6127V134.584C1805.24 134.877 1809.5 135.024 1816.24 135.024H1823.72Z" fill="#663319"/>
<path d="M725.501 330.643L713.132 328.499V318.274H737.21C740.838 318.274 745.731 318.054 751.888 317.614C753.317 317.504 755.461 317.394 758.319 317.284C761.288 317.174 763.927 317.119 766.235 317.119C786.465 317.119 801.583 322.177 811.588 332.292C821.703 342.407 826.76 356.755 826.76 375.335C826.76 388.309 824.232 399.853 819.174 409.968C814.227 420.083 807.135 427.999 797.9 433.716C788.664 439.324 777.89 442.127 765.576 442.127C762.387 442.127 757.385 441.907 750.568 441.467C744.191 441.028 739.848 440.808 737.54 440.808H712.472V430.913L725.501 429.264V330.643ZM749.414 429.758C753.152 430.748 758.374 431.243 765.081 431.243C776.076 431.023 784.706 426.625 790.973 418.049C797.24 409.363 800.373 396.39 800.373 379.128C800.373 362.747 797.295 350.103 791.138 341.197C784.981 332.182 775.416 327.674 762.442 327.674C759.694 327.674 757.055 327.839 754.526 328.169C752.107 328.499 750.403 328.718 749.414 328.828V429.758ZM894.994 442.127C878.282 442.127 865.858 437.949 857.722 429.593C849.586 421.238 845.518 408.099 845.518 390.178V330.643L834.634 328.499V318.274H884.439V328.499L870.421 330.807V392.322C870.421 418.489 879.711 431.572 898.292 431.572C907.418 431.572 914.179 428.219 918.577 421.512C922.975 414.696 925.174 405.185 925.174 392.982V330.807L910.991 328.499V318.274H952.22V328.499L941.006 330.643V391.662C941.006 408.814 936.828 421.512 928.472 429.758C920.226 438.004 909.067 442.127 894.994 442.127ZM1012.66 330.643L999.794 328.499V318.274H1024.37C1028.11 318.274 1032.94 318.054 1038.88 317.614C1040.31 317.504 1042.01 317.394 1043.99 317.284C1045.97 317.174 1048.28 317.119 1050.92 317.119C1067.52 317.119 1079.12 319.483 1085.72 324.211C1092.42 328.828 1095.78 335.755 1095.78 344.99C1095.78 353.126 1093.3 359.943 1088.36 365.44C1083.52 370.828 1077.14 374.126 1069.22 375.335C1080.11 375.225 1088.63 377.699 1094.79 382.757C1101.05 387.814 1104.19 394.851 1104.19 403.866C1104.19 415.3 1100.17 424.481 1092.15 431.407C1084.12 438.334 1070.71 441.797 1051.91 441.797C1046.96 441.797 1042.4 441.632 1038.22 441.303C1037.12 441.303 1035.25 441.193 1032.61 440.973C1029.97 440.863 1027.28 440.808 1024.53 440.808H999.629V430.913L1012.66 429.264V330.643ZM1036.57 371.707C1037.78 371.817 1040.25 371.872 1043.99 371.872H1051.74C1058.45 371.872 1063.45 369.783 1066.75 365.605C1070.05 361.427 1071.7 355.545 1071.7 347.959C1071.7 340.703 1069.99 335.425 1066.59 332.127C1063.18 328.828 1057.52 327.179 1049.6 327.179C1047.51 327.179 1043.17 327.399 1036.57 327.839V371.707ZM1036.57 429.923C1039.1 430.913 1043.94 431.407 1051.08 431.407C1060.43 431.407 1067.19 429.209 1071.37 424.811C1075.55 420.413 1077.64 414.036 1077.64 405.68C1077.64 397.654 1075.71 391.937 1071.86 388.529C1068.13 385.011 1062.13 383.251 1053.89 383.251C1044.65 383.251 1038.88 383.361 1036.57 383.581V429.923ZM1168.02 442.622C1150.1 442.622 1136.69 437.015 1127.78 425.8C1118.88 414.586 1114.43 399.303 1114.43 379.953C1114.43 367.309 1116.73 356.205 1121.35 346.64C1126.08 337.074 1132.68 329.708 1141.14 324.541C1149.61 319.373 1159.34 316.789 1170.33 316.789C1188.47 316.789 1202.05 322.177 1211.07 332.951C1220.19 343.616 1224.76 358.569 1224.76 377.809C1224.76 390.563 1222.34 401.887 1217.5 411.782C1212.77 421.567 1206.12 429.154 1197.54 434.541C1188.97 439.928 1179.13 442.622 1168.02 442.622ZM1169.67 326.849C1160.66 326.849 1153.62 331.302 1148.56 340.208C1143.51 349.113 1140.98 362.307 1140.98 379.788C1140.98 397.05 1143.4 410.188 1148.23 419.204C1153.18 428.109 1160.22 432.562 1169.34 432.562C1178.25 432.562 1185.23 427.889 1190.29 418.544C1195.34 409.089 1197.87 395.51 1197.87 377.809C1197.87 360.658 1195.45 347.904 1190.62 339.548C1185.78 331.082 1178.8 326.849 1169.67 326.849ZM1292.96 442.127C1276.24 442.127 1263.82 437.949 1255.68 429.593C1247.55 421.238 1243.48 408.099 1243.48 390.178V330.643L1232.6 328.499V318.274H1282.4V328.499L1268.38 330.807V392.322C1268.38 418.489 1277.67 431.572 1296.25 431.572C1305.38 431.572 1312.14 428.219 1316.54 421.512C1320.94 414.696 1323.14 405.185 1323.14 392.982V330.807L1308.95 328.499V318.274H1350.18V328.499L1338.97 330.643V391.662C1338.97 408.814 1334.79 421.512 1326.43 429.758C1318.19 438.004 1307.03 442.127 1292.96 442.127ZM1371.48 330.643L1358.62 328.499V318.274H1383.19C1386.93 318.274 1391.77 318.054 1397.71 317.614C1399.13 317.504 1400.84 317.394 1402.82 317.284C1404.8 317.174 1407.11 317.119 1409.74 317.119C1426.35 317.119 1437.95 319.483 1444.54 324.211C1451.25 328.828 1454.6 335.755 1454.6 344.99C1454.6 353.126 1452.13 359.943 1447.18 365.44C1442.34 370.828 1435.97 374.126 1428.05 375.335C1438.93 375.225 1447.46 377.699 1453.61 382.757C1459.88 387.814 1463.01 394.851 1463.01 403.866C1463.01 415.3 1459 424.481 1450.97 431.407C1442.95 438.334 1429.53 441.797 1410.73 441.797C1405.79 441.797 1401.22 441.632 1397.05 441.303C1395.95 441.303 1394.08 441.193 1391.44 440.973C1388.8 440.863 1386.11 440.808 1383.36 440.808H1358.45V430.913L1371.48 429.264V330.643ZM1395.4 371.707C1396.61 371.817 1399.08 371.872 1402.82 371.872H1410.57C1417.28 371.872 1422.28 369.783 1425.58 365.605C1428.87 361.427 1430.52 355.545 1430.52 347.959C1430.52 340.703 1428.82 335.425 1425.41 332.127C1422 328.828 1416.34 327.179 1408.43 327.179C1406.34 327.179 1401.99 327.399 1395.4 327.839V371.707ZM1395.4 429.923C1397.93 430.913 1402.76 431.407 1409.91 431.407C1419.25 431.407 1426.02 429.209 1430.19 424.811C1434.37 420.413 1436.46 414.036 1436.46 405.68C1436.46 397.654 1434.54 391.937 1430.69 388.529C1426.95 385.011 1420.96 383.251 1412.71 383.251C1403.48 383.251 1397.71 383.361 1395.4 383.581V429.923ZM1526.85 442.622C1508.93 442.622 1495.51 437.015 1486.61 425.8C1477.7 414.586 1473.25 399.303 1473.25 379.953C1473.25 367.309 1475.56 356.205 1480.18 346.64C1484.91 337.074 1491.5 329.708 1499.97 324.541C1508.43 319.373 1518.16 316.789 1529.16 316.789C1547.3 316.789 1560.88 322.177 1569.89 332.951C1579.02 343.616 1583.58 358.569 1583.58 377.809C1583.58 390.563 1581.16 401.887 1576.32 411.782C1571.6 421.567 1564.95 429.154 1556.37 434.541C1547.79 439.928 1537.95 442.622 1526.85 442.622ZM1528.5 326.849C1519.48 326.849 1512.45 331.302 1507.39 340.208C1502.33 349.113 1499.8 362.307 1499.8 379.788C1499.8 397.05 1502.22 410.188 1507.06 419.204C1512.01 428.109 1519.04 432.562 1528.17 432.562C1537.07 432.562 1544.06 427.889 1549.11 418.544C1554.17 409.089 1556.7 395.51 1556.7 377.809C1556.7 360.658 1554.28 347.904 1549.44 339.548C1544.61 331.082 1537.62 326.849 1528.5 326.849ZM1651.78 442.127C1635.07 442.127 1622.65 437.949 1614.51 429.593C1606.37 421.238 1602.31 408.099 1602.31 390.178V330.643L1591.42 328.499V318.274H1641.23V328.499L1627.21 330.807V392.322C1627.21 418.489 1636.5 431.572 1655.08 431.572C1664.2 431.572 1670.97 428.219 1675.36 421.512C1679.76 414.696 1681.96 405.185 1681.96 392.982V330.807L1667.78 328.499V318.274H1709.01V328.499L1697.79 330.643V391.662C1697.79 408.814 1693.62 421.512 1685.26 429.758C1677.01 438.004 1665.85 442.127 1651.78 442.127Z" fill="#663319"/>
</svg>
