<svg width="2207" height="489" viewBox="0 0 2207 489" fill="none" xmlns="http://www.w3.org/2000/svg">
<path d="M201.917 483.836C193.727 483.316 185.767 484.936 177.697 486.016C166.007 487.596 154.527 485.986 143.877 480.536C140.897 479.006 138.317 478.906 135.107 479.926C118.307 485.296 101.297 488.066 83.8267 483.056C78.3667 481.486 73.2167 479.166 68.1267 476.746C58.5967 472.236 49.6167 472.776 40.8467 478.736C35.4767 482.386 29.9267 485.846 23.5167 487.456C21.1967 488.036 18.8067 488.536 16.4267 488.606C4.96672 488.946 -2.09327 479.966 0.556727 468.526C2.08673 461.936 5.61672 456.476 10.9267 452.426C30.6067 437.396 52.2167 428.006 77.6567 430.406C80.0467 430.626 82.4467 430.956 84.7667 431.516C86.9067 432.036 88.9567 432.956 91.5467 433.876C91.5467 430.836 91.5467 428.176 91.5467 425.506C91.5767 337.646 91.2167 249.776 91.7467 161.916C92.2167 83.0862 147.187 17.8262 224.517 2.91624C311.357 -13.8338 396.717 43.2962 414.417 129.996C416.627 140.836 417.827 151.776 417.827 162.846C417.827 251.696 417.877 340.546 417.827 429.406C417.827 431.996 418.487 433.816 420.317 435.706C442.807 458.916 470.287 473.196 501.287 481.266C504.887 482.206 508.477 483.166 512.437 484.216C510.857 485.816 509.367 485.306 508.087 485.316C469.747 485.396 431.407 485.586 393.067 485.386C381.247 485.326 369.767 482.806 359.177 477.186C357.987 476.556 357.077 476.186 355.737 477.096C342.657 485.956 327.937 486.726 312.937 485.246C307.177 484.676 301.447 483.846 295.647 483.746C295.647 481.916 294.297 481.546 292.907 481.056C288.387 479.456 284.047 477.516 279.827 475.156C262.687 465.536 255.017 449.586 258.037 430.116C258.557 426.786 260.347 423.616 259.667 419.196C243.057 447.016 224.957 472.226 192.757 482.936C196.097 484.826 198.067 484.956 201.917 483.846V483.836ZM263.557 313.516C265.747 313.876 266.087 312.016 266.697 310.716C269.077 305.606 271.487 300.496 273.607 295.276C294.187 244.646 306.367 192.056 309.787 137.506C310.617 124.256 310.897 110.966 308.467 97.7762C307.747 93.8662 306.317 90.5162 302.917 88.2262C304.807 85.6662 306.587 86.4462 307.827 88.6962C308.837 90.5162 309.537 92.5762 310.017 94.6162C312.707 106.146 312.957 117.896 312.467 129.626C310.457 177.686 301.087 224.356 285.617 269.836C270.777 313.476 249.897 353.736 218.587 388.046C200.147 408.256 179.657 425.866 154.597 437.476C133.647 447.186 112.657 447.996 91.8067 436.966C88.4267 435.176 84.9867 433.526 81.1267 433.026C53.7367 429.456 30.5967 439.026 10.1467 456.376C5.14672 460.616 2.45673 466.456 2.43673 473.236C2.40673 482.156 10.1767 488.436 18.7967 486.116C25.3867 484.346 31.9567 482.416 37.5667 478.126C48.0467 470.106 59.2167 469.216 70.9267 475.396C72.2967 476.116 73.7467 476.706 75.1667 477.326C85.8467 481.996 96.9667 484.056 108.637 483.176C118.997 482.396 128.877 479.396 138.857 476.876L143.757 476.986C147.807 480.896 153.117 482.006 158.277 482.926C179.247 486.666 198.057 480.846 215.147 468.926C232.207 457.026 244.127 440.596 254.567 422.916C272.967 391.746 284.527 357.786 294.787 323.376C307.857 279.506 315.847 234.596 320.057 189.036C322.407 163.666 323.587 138.236 321.067 112.796C320.207 104.066 318.777 95.3962 315.227 87.2762C312.177 80.2962 307.387 79.5862 302.197 85.2062C301.627 85.8262 301.177 86.5462 300.667 87.2162C298.207 85.8362 295.737 84.4562 293.277 83.0762C293.977 83.1262 294.877 82.9062 295.347 83.2562C298.607 85.7362 300.547 83.8562 303.017 81.6562C306.857 78.2262 309.377 78.3662 313.907 81.4062C315.237 82.2962 316.537 82.4362 317.917 82.0462C319.087 81.7162 320.287 81.5762 321.137 82.3862C324.387 85.5162 328.447 87.5962 331.517 91.0062C337.007 97.1362 339.557 104.556 341.487 112.266C347.447 136.086 347.917 160.556 349.757 184.836C350.887 199.736 351.247 214.696 352.377 229.606C353.937 249.986 355.477 270.346 358.277 290.606C360.567 307.246 363.587 323.706 367.997 339.906C371.747 353.676 376.497 367.106 382.567 380.016C390.227 396.296 399.187 411.796 411.407 425.166C412.277 426.126 413.087 428.006 414.647 427.306C416.137 426.636 415.387 424.756 415.387 423.426C415.407 345.036 415.447 266.646 415.337 188.256C415.317 175.266 415.607 162.276 414.727 149.266C413.377 129.486 407.777 110.876 399.417 93.2562C386.957 66.9962 368.257 45.8762 343.937 29.6362C318.597 12.7062 290.737 3.92625 260.507 2.51625C245.507 1.81625 230.657 3.58624 216.037 7.21624C189.527 13.7862 166.307 26.4462 146.177 44.8162C139.617 50.8062 133.667 57.3362 128.097 64.3162C114.317 81.5762 104.867 100.936 99.1067 122.116C94.8567 137.726 93.7567 153.796 93.6167 169.906C93.4867 186.136 93.5867 202.366 93.5867 218.596C93.5867 287.786 93.5867 356.986 93.6167 426.176C93.6167 428.556 94.1267 430.936 94.2567 433.326C94.3467 434.986 95.2667 435.646 96.6267 436.416C107.477 442.566 119.267 442.796 131.227 442.236C133.157 442.146 133.567 441.016 133.607 439.456C136.627 442.476 145.617 439.766 147.807 435.186C149.097 439.266 151.687 436.336 153.067 435.726C171.207 427.696 186.767 415.736 201.297 402.526C212.437 392.396 222.357 381.016 231.517 368.996C244.037 352.576 254.647 335.026 263.807 316.556C264.277 315.616 265.727 314.346 263.567 313.506L263.557 313.516ZM389.867 482.806C396.777 483.566 403.707 483.126 410.617 483.126C436.477 483.106 462.337 482.986 488.197 482.906H495.957C494.547 481.606 493.137 481.496 491.837 481.096C463.717 472.256 438.777 458.226 418.177 436.796C392.787 410.376 376.607 378.896 366.657 343.986C353.977 299.516 351.457 253.666 348.587 207.876C346.777 179.096 345.827 150.236 341.177 121.716C339.567 111.856 337.367 101.976 330.627 93.9562C330.407 93.2862 329.967 92.4062 329.297 92.8462C328.687 93.2462 329.527 93.9962 329.787 94.5662C336.777 114.416 338.687 135.136 339.577 155.916C341.657 204.406 337.667 252.596 331.697 300.676C328.617 325.506 323.897 350.146 322.327 375.166C320.757 400.096 323.587 424.266 334.627 447.066C345.827 470.196 364.477 481.686 389.877 482.816L389.867 482.806ZM316.607 84.5662C322.557 98.4462 323.947 112.526 324.337 126.686C326.067 189.136 316.397 250.176 300.847 310.406C293.067 340.546 282.107 369.656 270.807 398.626C267.217 407.836 263.367 416.976 261.137 426.656C256.557 446.536 262.697 462.296 280.077 472.336C299.077 483.316 319.597 486.336 341.087 481.296C345.897 480.166 350.447 478.256 354.647 475.046C340.707 464.526 332.487 450.416 327.017 434.486C318.637 410.096 318.287 385.046 321.467 359.826C326.687 318.446 333.197 277.216 335.887 235.536C338.377 197.076 339.667 158.646 333.737 120.366C332.177 110.306 330.437 100.256 325.467 91.1462C323.657 87.8363 321.337 85.1862 316.597 84.5662H316.607Z" fill="#663319"/>
<path d="M201.917 483.836C198.067 484.946 196.097 484.816 192.757 482.926C224.957 472.216 243.057 447.006 259.667 419.186C260.337 423.606 258.557 426.786 258.037 430.106C255.007 449.576 262.687 465.536 279.827 475.146C284.037 477.506 288.387 479.446 292.907 481.046C294.297 481.536 295.647 481.916 295.647 483.736C290.157 483.826 284.667 484.006 279.177 483.996C255.907 483.966 232.647 483.886 209.377 483.826H209.467C206.947 483.826 204.427 483.816 201.907 483.806L201.917 483.836Z" fill="#663319"/>
<path d="M209.467 483.856H209.377L209.427 484.176L209.467 483.856Z" fill="#663319"/>
<path d="M133.607 439.456C133.567 441.026 133.157 442.156 131.227 442.246C119.267 442.806 107.477 442.586 96.6268 436.426C95.2668 435.656 94.3468 435.006 94.2568 433.336C94.1268 430.946 93.6168 428.566 93.6168 426.186C93.5768 356.996 93.5868 287.796 93.5868 218.606C93.5868 202.376 93.4868 186.146 93.6168 169.916C93.7468 153.806 94.8568 137.736 99.1068 122.126C104.867 100.946 114.317 81.5863 128.097 64.3263C133.667 57.3463 139.617 50.8163 146.177 44.8263C166.317 26.4563 189.527 13.7963 216.037 7.22627C230.657 3.60627 245.507 1.83628 260.507 2.52628C290.737 3.92628 318.597 12.7063 343.937 29.6463C368.247 45.8963 386.947 67.0063 399.417 93.2663C407.787 110.896 413.387 129.496 414.727 149.276C415.617 162.296 415.317 175.276 415.337 188.266C415.447 266.656 415.407 345.046 415.387 423.436C415.387 424.766 416.137 426.646 414.647 427.316C413.077 428.026 412.277 426.136 411.407 425.176C399.187 411.796 390.227 396.306 382.567 380.026C376.497 367.116 371.737 353.686 367.997 339.916C363.587 323.716 360.567 307.256 358.277 290.616C355.487 270.356 353.937 249.986 352.377 229.616C351.237 214.706 350.877 199.736 349.757 184.846C347.917 160.566 347.447 136.086 341.487 112.276C339.557 104.566 337.007 97.1463 331.517 91.0163C328.457 87.5963 324.387 85.5163 321.137 82.3963C320.287 81.5763 319.087 81.7263 317.917 82.0563C316.537 82.4463 315.237 82.3063 313.907 81.4163C309.377 78.3763 306.857 78.2363 303.017 81.6663C300.547 83.8763 298.607 85.7463 295.347 83.2663C294.877 82.9163 293.977 83.1263 293.277 83.0863C292.327 82.8563 291.367 82.6463 290.427 82.3763C274.537 77.9163 260.817 86.7663 258.527 103.056C257.997 106.846 258.247 110.666 258.677 114.476C260.007 126.436 262.777 138.126 265.507 149.816C270.787 172.416 275.237 195.156 275.137 218.486C275.067 233.736 273.527 248.596 260.407 259.176C258.947 260.356 259.477 261.996 259.257 263.486C258.877 266.056 260.237 268.836 258.287 271.196C257.167 271.076 256.057 270.856 254.937 270.856C219.887 270.856 184.827 270.876 149.777 270.906C148.527 270.906 147.227 270.656 146.047 271.336C145.577 271.326 145.107 271.306 144.637 271.296C144.117 270.796 143.787 270.836 143.697 271.606C143.687 281.496 143.667 291.376 143.657 301.266C136.547 305.466 133.177 312.056 131.657 319.866C129.987 328.446 131.367 336.716 133.867 344.946C137.927 358.326 143.077 371.396 145.757 385.166C147.797 395.616 148.257 406.016 142.517 415.656C140.107 419.696 136.897 422.656 131.757 422.866C128.447 423.006 127.197 425.426 129.377 427.896C131.407 430.196 131.897 432.806 132.507 435.516C132.557 436.986 132.407 438.506 133.577 439.686L133.607 439.436V439.456Z" fill="#663319"/>
<path d="M147.797 435.186C150.197 425.916 153.377 416.866 154.687 407.306C156.637 393.106 154.857 379.136 152.607 365.166C151.147 356.106 149.417 347.086 149.597 337.836C149.857 324.466 156.767 315.776 169.837 312.816C177.247 311.136 184.707 311.066 191.957 313.756C207.587 319.546 223.027 319.526 238.657 313.366C246.747 310.176 255.267 310.586 263.547 313.516C265.707 314.356 264.257 315.626 263.787 316.566C254.627 335.036 244.007 352.586 231.497 369.006C222.337 381.026 212.417 392.406 201.277 402.536C186.747 415.736 171.187 427.696 153.047 435.736C151.667 436.346 149.087 439.276 147.787 435.196L147.797 435.186Z" fill="#663319"/>
<path d="M205.777 271.776C204.247 271.776 202.727 271.776 201.197 271.776C194.517 271.776 187.837 271.776 181.157 271.776C177.927 271.776 174.707 271.776 171.477 271.776C162.997 271.636 154.507 271.496 146.027 271.346C147.207 270.666 148.507 270.916 149.757 270.916C184.807 270.886 219.867 270.866 254.917 270.866C256.037 270.866 257.147 271.086 258.267 271.206C257.357 271.386 256.457 271.576 255.547 271.756C238.957 271.756 222.367 271.756 205.777 271.766V271.776Z" fill="white"/>
<path d="M144.627 271.316C144.317 271.416 144.007 271.526 143.687 271.626C143.777 270.856 144.107 270.816 144.627 271.316Z" fill="white"/>
<path d="M267.787 358.816C258.617 379.516 245.337 397.426 229.947 413.796C207.377 437.796 181.177 456.586 149.967 467.826C126.307 476.346 103.307 476.356 81.2269 462.546C73.7869 457.896 65.6368 454.646 56.6868 453.816C44.7668 452.706 34.0469 455.896 24.3169 462.646C19.3469 466.096 16.4168 470.656 17.1568 476.996L17.2168 476.936C14.0568 473.876 15.2769 470.556 16.9169 467.446C19.9169 461.746 25.3468 458.726 30.8568 456.216C44.3668 450.056 58.1368 449.536 71.9268 455.426C75.8168 457.086 79.7769 458.736 83.3469 460.976C104.547 474.266 126.767 473.766 149.317 465.636C186.357 452.276 215.927 428.596 240.527 398.306C250.697 385.776 259.247 372.136 267.097 358.056C267.327 358.316 267.557 358.566 267.797 358.826L267.787 358.816Z" fill="#663319"/>
<path d="M267.787 358.816C267.557 358.566 267.327 358.306 267.087 358.046C268.417 354.846 269.777 351.666 271.837 348.846L271.947 348.946C271.577 352.666 269.527 355.666 267.787 358.806V358.816Z" fill="#663319"/>
<path d="M276.467 338.986C276.407 338.896 276.347 338.796 276.297 338.706C276.427 338.636 276.567 338.556 276.697 338.486C276.707 338.596 276.757 338.726 276.727 338.816C276.697 338.896 276.567 338.936 276.477 338.986H276.467Z" fill="white"/>
<path d="M271.847 348.846C271.837 348.136 271.877 347.446 272.687 347.146L272.737 347.176C272.867 347.936 272.887 348.656 271.957 348.946L271.847 348.846Z" fill="#663319"/>
<path d="M17.1567 476.996C17.3267 477.326 17.4967 477.666 17.6767 477.996C16.7367 477.996 17.3967 477.286 17.2267 476.946L17.1667 476.996H17.1567Z" fill="#663319"/>
<path d="M782.937 183.665C788.951 183.665 793.928 183.043 797.868 181.799C801.808 180.554 804.919 179.103 807.2 177.444C809.896 175.785 811.97 173.815 813.422 171.533H814.666L794.446 212.906H619.003V211.661C621.076 211.661 622.943 211.143 624.602 210.106C625.846 209.069 626.987 207.41 628.024 205.129C629.268 202.848 629.89 199.633 629.89 195.486V22.2196C629.89 17.8646 629.268 14.6502 628.024 12.5764C626.987 10.2952 625.846 8.63617 624.602 7.59927C622.943 6.56237 621.076 6.04392 619.003 6.04392V4.79963C621.906 5.00701 624.602 5.21439 627.09 5.42177C629.372 5.62916 631.549 5.83654 633.623 6.04392C635.904 6.04392 637.667 6.04392 638.911 6.04392C640.155 6.04392 641.814 6.04392 643.888 6.04392C646.169 5.83654 648.347 5.62916 650.421 5.42177C652.909 5.21439 655.502 5.00701 658.198 4.79963V6.04392C656.124 6.04392 654.361 6.56237 652.909 7.59927C651.458 8.63617 650.11 10.2952 648.865 12.5764C647.828 14.8576 647.31 18.1757 647.31 22.5306V207.618H771.427C777.441 207.618 782.418 206.892 786.359 205.44C790.299 203.988 793.409 202.433 795.691 200.774C798.387 198.7 800.46 196.419 801.912 193.93L804.712 188.331H670.329V187.087C672.403 187.087 674.166 186.568 675.617 185.532C677.069 184.702 678.313 183.354 679.35 181.488C680.595 179.414 681.217 176.511 681.217 172.778V20.0421C681.217 16.1019 680.595 13.1985 679.35 11.3321C678.313 9.4657 677.069 8.11773 675.617 7.2882C674.166 6.2513 672.403 5.73285 670.329 5.73285V4.79963H805.956L814.666 21.5974H813.422C811.97 19.3163 809.896 17.2424 807.2 15.376C804.919 13.9244 801.808 12.5764 797.868 11.3321C793.928 10.0878 788.951 9.46569 782.937 9.46569H698.637V68.8801L699.57 70.1244H761.784C767.176 70.1244 771.635 69.8134 775.16 69.1912C778.685 68.5691 781.589 67.6359 783.87 66.3916C786.359 64.9399 788.329 63.2809 789.78 61.4145C791.232 59.548 792.684 57.3705 794.135 54.882L795.38 55.8152L765.828 106.831L764.895 106.209C767.176 102.061 769.042 98.1208 770.494 94.3879C771.946 90.6551 772.568 87.4407 772.36 84.7447C772.36 81.8414 771.427 79.5602 769.561 77.9012C767.694 76.2421 764.687 75.4126 760.54 75.4126H699.57L698.637 78.2123V183.665H782.937Z" fill="#663319"/>
<path d="M1031.26 105.898C1038.52 106.727 1045.26 108.801 1051.48 112.119C1057.7 115.23 1063.1 119.17 1067.66 123.94C1072.43 128.502 1076.06 133.79 1078.55 139.804C1081.24 145.818 1082.59 152.247 1082.59 159.091C1082.59 166.556 1080.93 173.607 1077.61 180.243C1074.5 186.672 1070.25 192.375 1064.86 197.352C1059.47 202.122 1053.04 205.959 1045.57 208.862C1038.31 211.558 1030.54 212.906 1022.24 212.906H938.253V211.661C940.327 211.661 942.193 211.143 943.853 210.106C945.097 209.069 946.237 207.41 947.274 205.129C948.519 202.848 949.141 199.633 949.141 195.486V151.003C949.141 140.634 950.903 132.753 954.429 127.361C957.954 121.762 961.998 117.511 966.561 114.607L970.605 112.43C975.167 110.356 979.937 109.216 984.914 109.008C980.351 108.801 975.582 107.66 970.605 105.586L966.561 103.409C961.998 100.506 957.954 96.2543 954.429 90.6551C950.903 85.0558 949.141 77.0717 949.141 66.7026V22.2196C949.141 17.8646 948.519 14.5465 947.274 12.2653C946.237 9.98414 945.097 8.3251 943.853 7.2882C942.193 6.2513 940.327 5.73285 938.253 5.73285V4.79963C952.148 4.79963 964.591 4.69595 975.582 4.48857H1013.84C1021.1 4.48857 1027.84 5.83654 1034.06 8.53249C1040.49 11.2284 1046.09 14.9613 1050.86 19.731C1055.63 24.5008 1059.36 30.1 1062.06 36.5288C1064.76 42.7502 1066.1 49.4901 1066.1 56.7484C1066.1 67.9469 1062.89 78.0049 1056.46 86.9222C1050.24 95.8396 1041.84 102.165 1031.26 105.898ZM966.561 69.1912C966.561 71.265 966.768 74.3757 967.183 78.5233C967.805 82.6709 968.738 86.7148 969.982 90.6551C971.434 94.5953 973.508 98.1208 976.204 101.231C979.107 104.135 982.944 105.586 987.713 105.586H1016.33C1019.86 105.172 1022.86 104.446 1025.35 103.409C1030.74 101.543 1035.31 98.5355 1039.04 94.3879C1042.77 90.2403 1045.57 85.5743 1047.44 80.3897C1049.51 74.9979 1050.45 69.1912 1050.24 62.9698C1050.24 56.7484 1049.1 50.527 1046.82 44.3056C1043.5 35.3882 1037.9 27.8188 1030.02 21.5974C1022.35 15.1687 1011.56 11.9543 997.668 11.9543H966.561V69.1912ZM1035.62 207.306C1041.63 205.44 1046.82 202.433 1051.17 198.285C1055.53 193.93 1058.84 189.057 1061.13 183.665C1063.41 178.066 1064.55 172.052 1064.55 165.623C1064.55 159.194 1063.2 152.765 1060.5 146.337C1056.36 136.797 1050.24 129.02 1042.15 123.006C1034.27 116.992 1025.66 113.467 1016.33 112.43H987.713C983.151 112.43 979.418 113.882 976.515 116.785C973.819 119.688 971.745 123.11 970.293 127.05C968.842 130.991 967.805 135.034 967.183 139.182C966.768 143.122 966.561 146.233 966.561 148.514V195.486C966.561 195.901 966.768 196.937 967.183 198.597C967.598 200.048 968.531 201.604 969.982 203.263C971.434 204.922 973.612 206.477 976.515 207.929C979.418 209.173 983.358 209.795 988.336 209.795H1022.24C1024.52 209.588 1026.7 209.38 1028.77 209.173C1031.06 208.758 1033.34 208.136 1035.62 207.306Z" fill="#663319"/>
<path d="M1202.32 2C1217.25 2 1231.14 4.79963 1244 10.3989C1257.06 15.9982 1268.47 23.6712 1278.22 33.4181C1287.96 42.9576 1295.64 54.2598 1301.24 67.3248C1306.84 80.3898 1309.63 94.2842 1309.63 109.008C1309.63 123.732 1306.84 137.627 1301.24 150.692C1295.64 163.757 1287.96 175.163 1278.22 184.909C1268.47 194.449 1257.06 202.018 1244 207.618C1231.14 213.217 1217.25 216.016 1202.32 216.016C1187.59 216.016 1173.7 213.217 1160.63 207.618C1147.57 202.018 1136.16 194.449 1126.41 184.909C1116.67 175.163 1108.99 163.757 1103.4 150.692C1097.8 137.627 1095 123.732 1095 109.008C1095 94.2842 1097.8 80.3898 1103.4 67.3248C1108.99 54.2598 1116.67 42.9576 1126.41 33.4181C1136.16 23.6712 1147.57 15.9982 1160.63 10.3989C1173.7 4.79963 1187.59 2 1202.32 2ZM1239.02 202.952C1252.09 198.597 1262.87 191.857 1271.37 182.732C1279.88 173.4 1285.89 162.616 1289.42 150.381C1292.94 138.145 1293.98 124.977 1292.53 110.875C1291.07 96.5654 1287.03 82.1525 1280.39 67.6359C1276.04 58.5111 1270.75 50.3196 1264.53 43.0613C1258.52 35.803 1251.78 29.5816 1244.31 24.3971C1236.84 19.2126 1228.86 15.2723 1220.36 12.5764C1212.06 9.88045 1203.56 8.53249 1194.85 8.53249C1184.69 8.53249 1174.32 10.6063 1163.74 14.7539C1150.26 20.1458 1139.48 28.1299 1131.39 38.7063C1123.51 49.0753 1118.02 60.4812 1114.9 72.9241C1111.79 85.3669 1110.86 98.0171 1112.11 110.875C1113.35 123.525 1116.25 135.034 1120.82 145.403C1124.55 153.699 1129.63 161.579 1136.06 169.045C1142.69 176.511 1150.16 183.043 1158.45 188.642C1166.75 194.242 1175.67 198.7 1185.21 202.018C1194.75 205.336 1204.39 206.995 1214.14 206.995C1222.85 206.995 1231.14 205.647 1239.02 202.952Z" fill="#663319"/>
<path d="M1491.11 6.04392C1492.77 5.83654 1494.43 5.73285 1496.09 5.73285C1497.96 5.52546 1499.72 5.31808 1501.38 5.1107C1503.04 5.1107 1504.8 5.00701 1506.67 4.79963V6.04392C1503.76 6.04392 1501.17 6.45868 1498.89 7.2882C1496.82 8.3251 1494.95 9.88045 1493.29 11.9543C1491.63 13.8207 1490.8 16.8277 1490.8 20.9753C1490.8 26.3672 1490.8 32.8997 1490.8 40.5727C1490.8 48.0384 1490.8 55.9189 1490.8 64.2141C1490.8 72.5093 1490.7 80.9082 1490.49 89.4108C1490.49 97.9134 1490.49 105.794 1490.49 113.052C1490.49 120.31 1490.49 126.636 1490.49 132.027C1490.49 137.419 1490.49 141.152 1490.49 143.226C1490.49 152.351 1489.45 161.268 1487.38 169.978C1485.31 178.688 1481.57 186.465 1476.18 193.308C1470.79 200.152 1463.22 205.647 1453.47 209.795C1443.93 213.943 1431.49 216.016 1416.14 216.016C1399.97 216.016 1386.49 213.943 1375.71 209.795C1365.13 205.647 1356.73 200.152 1350.51 193.308C1344.29 186.465 1339.93 178.688 1337.44 169.978C1334.96 161.268 1333.71 152.351 1333.71 143.226V22.2196C1333.71 17.8646 1333.09 14.6502 1331.84 12.5764C1330.81 10.2952 1329.67 8.63617 1328.42 7.59927C1326.76 6.56237 1324.9 6.04392 1322.82 6.04392V4.79963C1325.73 5.00701 1328.42 5.21439 1330.91 5.42177C1333.19 5.62916 1335.37 5.83654 1337.44 6.04392C1339.73 6.04392 1341.49 6.04392 1342.73 6.04392C1343.98 6.04392 1345.64 6.04392 1347.71 6.04392C1349.99 5.83654 1352.17 5.62916 1354.24 5.42177C1356.73 5.21439 1359.32 5.00701 1362.02 4.79963V6.04392C1359.94 6.04392 1358.18 6.56237 1356.73 7.59927C1355.28 8.63617 1353.93 10.2952 1352.69 12.5764C1351.65 14.8576 1351.13 18.1757 1351.13 22.5306V143.226C1351.13 156.084 1353.1 166.764 1357.04 175.266C1361.19 183.769 1366.48 190.612 1372.91 195.797C1379.33 200.981 1386.39 204.611 1394.06 206.684C1401.73 208.758 1409.09 209.795 1416.14 209.795C1423.61 209.795 1431.28 209.173 1439.16 207.929C1447.25 206.477 1454.51 203.47 1460.94 198.908C1467.58 194.138 1472.97 187.398 1477.11 178.688C1481.47 169.978 1483.65 158.157 1483.65 143.226V20.6642C1483.65 16.5166 1482.82 13.5096 1481.16 11.6432C1479.5 9.77677 1477.63 8.3251 1475.56 7.2882C1473.28 6.45868 1470.58 6.04392 1467.47 6.04392V4.79963C1469.34 5.00701 1471.31 5.21439 1473.38 5.42177C1475.04 5.42177 1476.7 5.52546 1478.36 5.73285C1480.23 5.73285 1481.99 5.83654 1483.65 6.04392H1491.11Z" fill="#663319"/>
<path d="M1584.12 4.79963C1598.85 4.79963 1612.53 7.18451 1625.18 11.9543C1637.83 16.5166 1648.72 23.3602 1657.85 32.4849C1667.18 41.4023 1674.44 52.3934 1679.62 65.4584C1684.81 78.5233 1687.4 93.4547 1687.4 110.253C1687.4 125.184 1685.12 138.975 1680.55 151.625C1676.2 164.068 1669.98 174.851 1661.89 183.976C1653.8 193.101 1643.95 200.256 1632.34 205.44C1620.93 210.417 1608.18 212.906 1594.08 212.906H1518.8V211.661C1520.87 211.661 1522.74 211.143 1524.4 210.106C1525.64 209.069 1526.78 207.41 1527.82 205.129C1529.06 202.848 1529.69 199.633 1529.69 195.486V22.2196C1529.69 17.8646 1529.06 14.5465 1527.82 12.2653C1526.78 9.98414 1525.64 8.3251 1524.4 7.2882C1522.74 6.2513 1520.87 5.73285 1518.8 5.73285V4.79963H1584.12ZM1666.87 108.075C1666.87 91.0698 1664.9 76.8643 1660.96 65.4584C1657.22 53.8451 1652.45 44.513 1646.65 37.462C1640.84 30.2037 1634.41 24.7081 1627.36 20.9753C1620.52 17.2424 1613.88 14.6502 1607.45 13.1985C1601.23 11.7469 1595.63 11.021 1590.66 11.021C1585.89 10.8137 1582.67 10.71 1581.01 10.71H1547.11V195.486C1547.11 195.901 1547.31 196.937 1547.73 198.597C1548.14 200.048 1549.08 201.604 1550.53 203.263C1551.98 204.922 1554.16 206.477 1557.06 207.929C1559.96 209.173 1563.9 209.795 1568.88 209.795H1584.12C1590.14 209.795 1596.36 209.484 1602.79 208.862C1609.22 208.24 1615.44 206.892 1621.45 204.818C1627.67 202.537 1633.48 199.219 1638.87 194.864C1644.47 190.509 1649.34 184.598 1653.49 177.133C1657.64 169.667 1660.85 160.335 1663.13 149.136C1665.62 137.73 1666.87 124.043 1666.87 108.075Z" fill="#663319"/>
<path d="M1808.66 2C1823.59 2 1837.49 4.79963 1850.34 10.3989C1863.41 15.9982 1874.81 23.6712 1884.56 33.4181C1894.31 42.9576 1901.98 54.2598 1907.58 67.3248C1913.18 80.3898 1915.98 94.2842 1915.98 109.008C1915.98 123.732 1913.18 137.627 1907.58 150.692C1901.98 163.757 1894.31 175.163 1884.56 184.909C1874.81 194.449 1863.41 202.018 1850.34 207.618C1837.49 213.217 1823.59 216.016 1808.66 216.016C1793.94 216.016 1780.04 213.217 1766.98 207.618C1753.91 202.018 1742.51 194.449 1732.76 184.909C1723.01 175.163 1715.34 163.757 1709.74 150.692C1704.14 137.627 1701.34 123.732 1701.34 109.008C1701.34 94.2842 1704.14 80.3898 1709.74 67.3248C1715.34 54.2598 1723.01 42.9576 1732.76 33.4181C1742.51 23.6712 1753.91 15.9982 1766.98 10.3989C1780.04 4.79963 1793.94 2 1808.66 2ZM1845.37 202.952C1858.43 198.597 1869.21 191.857 1877.72 182.732C1886.22 173.4 1892.23 162.616 1895.76 150.381C1899.29 138.145 1900.32 124.977 1898.87 110.875C1897.42 96.5654 1893.37 82.1525 1886.74 67.6359C1882.38 58.5111 1877.1 50.3196 1870.87 43.0613C1864.86 35.803 1858.12 29.5816 1850.65 24.3971C1843.19 19.2126 1835.2 15.2723 1826.7 12.5764C1818.41 9.88045 1809.9 8.53249 1801.19 8.53249C1791.03 8.53249 1780.66 10.6063 1770.09 14.7539C1756.61 20.1458 1745.82 28.1299 1737.74 38.7063C1729.86 49.0753 1724.36 60.4812 1721.25 72.9241C1718.14 85.3669 1717.21 98.0171 1718.45 110.875C1719.69 123.525 1722.6 135.034 1727.16 145.403C1730.89 153.699 1735.97 161.579 1742.4 169.045C1749.04 176.511 1756.5 183.043 1764.8 188.642C1773.09 194.242 1782.01 198.7 1791.55 202.018C1801.09 205.336 1810.73 206.995 1820.48 206.995C1829.19 206.995 1837.49 205.647 1845.37 202.952Z" fill="#663319"/>
<path d="M1959.03 195.175C1959.03 199.53 1959.55 202.848 1960.59 205.129C1961.83 207.203 1963.18 208.758 1964.63 209.795C1966.08 211.039 1967.84 211.661 1969.92 211.661V212.906C1967.22 212.698 1964.63 212.491 1962.14 212.284C1960.07 212.076 1957.89 211.973 1955.61 211.973C1953.54 211.765 1951.88 211.661 1950.63 211.661C1949.39 211.661 1947.62 211.765 1945.34 211.973C1943.27 211.973 1941.09 212.076 1938.81 212.284C1936.32 212.491 1933.63 212.698 1930.72 212.906V211.661C1932.8 211.661 1934.66 211.143 1936.32 210.106C1937.57 209.069 1938.71 207.41 1939.74 205.129C1940.99 202.848 1941.61 199.633 1941.61 195.486V22.2196C1941.61 17.8646 1940.99 14.6502 1939.74 12.5764C1938.71 10.2952 1937.57 8.63617 1936.32 7.59927C1934.66 6.56237 1932.8 6.04392 1930.72 6.04392V4.79963C1933.63 5.00701 1936.32 5.21439 1938.81 5.42177C1941.09 5.62916 1943.27 5.83654 1945.34 6.04392C1947.62 6.04392 1949.39 6.04392 1950.63 6.04392C1951.88 6.04392 1953.54 6.04392 1955.61 6.04392C1957.89 5.83654 1960.07 5.62916 1962.14 5.42177C1964.63 5.21439 1967.22 5.00701 1969.92 4.79963V6.04392C1967.84 6.04392 1966.08 6.56237 1964.63 7.59927C1963.18 8.63617 1961.83 10.2952 1960.59 12.5764C1959.55 14.8576 1959.03 18.1757 1959.03 22.5306V195.175Z" fill="#663319"/>
<path d="M2156.17 199.53C2155.76 204.092 2153.79 207.721 2150.26 210.417C2146.74 212.906 2142.28 213.735 2136.89 212.906C2132.74 212.284 2129.21 210.728 2126.31 208.24C2123.41 205.544 2120.92 202.64 2118.85 199.53C2116.77 196.212 2115.01 192.79 2113.56 189.264C2112.31 185.739 2111.17 182.628 2110.14 179.932L2103.6 163.134C2099.87 154.01 2096.03 146.44 2092.09 140.426C2088.15 134.205 2084.01 129.228 2079.65 125.495C2075.3 121.762 2070.63 119.066 2065.65 117.407C2060.88 115.748 2055.59 114.711 2049.79 114.296C2047.71 114.296 2045.85 114.296 2044.19 114.296C2042.74 114.089 2041.39 113.985 2040.14 113.985H2014.02V195.175C2014.02 199.53 2014.53 202.848 2015.57 205.129C2016.81 207.203 2018.16 208.758 2019.61 209.795C2021.07 211.039 2022.83 211.661 2024.9 211.661V212.906C2022.21 212.698 2019.61 212.491 2017.13 212.284C2015.05 212.076 2012.87 211.973 2010.59 211.973C2008.52 211.765 2006.86 211.661 2005.62 211.661C2004.37 211.661 2002.61 211.765 2000.33 211.973C1998.25 211.973 1996.08 212.076 1993.8 212.284C1991.31 212.491 1988.61 212.698 1985.71 212.906V211.661C1987.78 211.661 1989.65 211.143 1991.31 210.106C1992.55 209.069 1993.69 207.41 1994.73 205.129C1995.97 202.848 1996.6 199.633 1996.6 195.486V22.2196C1996.6 17.8646 1995.97 14.5465 1994.73 12.2653C1993.69 9.98414 1992.55 8.3251 1991.31 7.2882C1989.65 6.2513 1987.78 5.73285 1985.71 5.73285V4.79963C1993.38 4.79963 2000.64 4.79963 2007.48 4.79963C2013.5 5.00701 2019.51 5.1107 2025.52 5.1107C2031.75 5.1107 2036.72 5.1107 2040.46 5.1107C2044.19 5.1107 2049.17 5.1107 2055.39 5.1107C2061.61 4.90332 2068.14 5.11071 2074.98 5.73285C2082.04 6.35499 2089.09 7.59926 2096.14 9.46569C2103.4 11.3321 2109.93 14.2354 2115.74 18.1757C2121.54 21.9085 2126.21 26.9893 2129.73 33.4181C2133.47 39.8469 2135.33 48.0384 2135.33 57.9927C2135.33 68.5691 2133.36 77.279 2129.42 84.1226C2125.48 90.9661 2120.5 96.5654 2114.49 100.92C2108.48 105.068 2101.74 108.075 2094.27 109.941C2086.81 111.808 2079.44 113.052 2072.19 113.674L2074.36 113.985C2080.79 115.852 2086.29 118.237 2090.85 121.14C2095.62 123.836 2099.66 126.843 2102.98 130.161C2106.3 133.272 2109 136.382 2111.07 139.493C2113.14 142.604 2114.7 145.3 2115.74 147.581C2116.36 148.618 2116.77 149.655 2116.98 150.692C2117.39 151.729 2117.81 152.765 2118.22 153.802L2120.71 159.091L2134.71 194.242C2135.75 196.523 2136.78 198.908 2137.82 201.396C2139.07 203.677 2140.83 205.336 2143.11 206.373C2144.56 207.203 2146.22 207.514 2148.09 207.306C2150.16 206.892 2151.72 206.062 2152.75 204.818C2153.37 204.196 2154.1 203.055 2154.93 201.396C2154.93 201.189 2154.93 201.085 2154.93 201.085C2155.14 200.878 2155.24 200.67 2155.24 200.463C2155.24 200.256 2155.34 200.048 2155.55 199.841L2156.17 199.53ZM2037.35 109.008C2040.25 109.008 2044.19 109.112 2049.17 109.319C2054.35 109.527 2059.95 109.423 2065.96 109.008C2071.98 108.386 2077.99 107.245 2084.01 105.586C2090.02 103.927 2095.52 101.231 2100.49 97.4986C2105.47 93.7658 2109.51 88.7887 2112.62 82.5672C2115.74 76.3458 2117.29 68.4654 2117.29 58.9259C2117.29 49.8012 2115.84 42.3355 2112.94 36.5288C2110.03 30.7222 2106.2 26.0561 2101.43 22.5306C2096.86 18.7978 2091.68 16.1019 2085.87 14.4428C2080.07 12.5764 2074.36 11.4358 2068.76 11.021C2063.16 10.3989 2057.88 10.0878 2052.9 10.0878C2048.13 10.0878 2044.29 10.0878 2041.39 10.0878H2014.02V109.008H2037.35Z" fill="#663319"/>
<path d="M633.762 275.399C648.486 275.399 662.173 277.784 674.823 282.553C687.473 287.116 698.36 293.959 707.485 303.084C716.817 312.001 724.076 322.993 729.26 336.057C734.445 349.122 737.037 364.054 737.037 380.852C737.037 395.783 734.756 409.574 730.193 422.224C725.838 434.667 719.617 445.451 711.529 454.575C703.441 463.7 693.591 470.855 681.977 476.039C670.571 481.016 657.818 483.505 643.716 483.505H568.437V482.261C570.511 482.261 572.377 481.742 574.036 480.705C575.28 479.668 576.421 478.009 577.458 475.728C578.702 473.447 579.324 470.233 579.324 466.085V292.819C579.324 288.464 578.702 285.146 577.458 282.864C576.421 280.583 575.28 278.924 574.036 277.887C572.377 276.85 570.511 276.332 568.437 276.332V275.399H633.762ZM716.506 378.674C716.506 361.669 714.536 347.463 710.596 336.057C706.863 324.444 702.093 315.112 696.287 308.061C690.48 300.803 684.051 295.307 677 291.574C670.157 287.842 663.521 285.249 657.092 283.798C650.87 282.346 645.271 281.62 640.294 281.62C635.524 281.413 632.31 281.309 630.651 281.309H596.744V466.085C596.744 466.5 596.951 467.537 597.366 469.196C597.781 470.647 598.714 472.203 600.166 473.862C601.618 475.521 603.795 477.076 606.698 478.528C609.602 479.772 613.542 480.394 618.519 480.394H633.762C639.776 480.394 645.997 480.083 652.426 479.461C658.855 478.839 665.076 477.491 671.09 475.417C677.311 473.136 683.118 469.818 688.51 465.463C694.109 461.108 698.983 455.197 703.13 447.732C707.278 440.266 710.492 430.934 712.773 419.735C715.262 408.33 716.506 394.642 716.506 378.674Z" fill="#663319"/>
<path d="M918.957 276.643C920.616 276.436 922.275 276.332 923.934 276.332C925.801 276.125 927.563 275.917 929.223 275.71C930.882 275.71 932.644 275.606 934.511 275.399V276.643C931.607 276.643 929.015 277.058 926.734 277.887C924.66 278.924 922.794 280.48 921.135 282.553C919.476 284.42 918.646 287.427 918.646 291.574C918.646 296.966 918.646 303.499 918.646 311.172C918.646 318.638 918.646 326.518 918.646 334.813C918.646 343.108 918.542 351.507 918.335 360.01C918.335 368.513 918.335 376.393 918.335 383.651C918.335 390.91 918.335 397.235 918.335 402.627C918.335 408.018 918.335 411.751 918.335 413.825C918.335 422.95 917.298 431.867 915.224 440.577C913.151 449.287 909.418 457.064 904.026 463.907C898.634 470.751 891.065 476.247 881.318 480.394C871.778 484.542 859.335 486.616 843.989 486.616C827.814 486.616 814.334 484.542 803.55 480.394C792.974 476.247 784.575 470.751 778.353 463.907C772.132 457.064 767.777 449.287 765.288 440.577C762.8 431.867 761.556 422.95 761.556 413.825V292.819C761.556 288.464 760.933 285.249 759.689 283.176C758.652 280.894 757.512 279.235 756.267 278.198C754.608 277.161 752.742 276.643 750.668 276.643V275.399C753.571 275.606 756.267 275.814 758.756 276.021C761.037 276.228 763.215 276.436 765.288 276.643C767.57 276.643 769.332 276.643 770.577 276.643C771.821 276.643 773.48 276.643 775.554 276.643C777.835 276.436 780.012 276.228 782.086 276.021C784.575 275.814 787.167 275.606 789.863 275.399V276.643C787.789 276.643 786.026 277.161 784.575 278.198C783.123 279.235 781.775 280.894 780.531 283.176C779.494 285.457 778.975 288.775 778.975 293.13V413.825C778.975 426.683 780.946 437.363 784.886 445.865C789.033 454.368 794.322 461.211 800.75 466.396C807.179 471.581 814.23 475.21 821.903 477.283C829.576 479.357 836.938 480.394 843.989 480.394C851.455 480.394 859.128 479.772 867.008 478.528C875.096 477.076 882.355 474.069 888.783 469.507C895.42 464.737 900.811 457.997 904.959 449.287C909.314 440.577 911.492 428.756 911.492 413.825V291.263C911.492 287.116 910.662 284.109 909.003 282.242C907.344 280.376 905.477 278.924 903.404 277.887C901.122 277.058 898.427 276.643 895.316 276.643V275.399C897.182 275.606 899.152 275.814 901.226 276.021C902.885 276.021 904.544 276.125 906.203 276.332C908.07 276.332 909.832 276.436 911.492 276.643H918.957Z" fill="#663319"/>
<path d="M1151.73 376.497C1158.98 377.326 1165.72 379.4 1171.94 382.718C1178.17 385.829 1183.56 389.769 1188.12 394.539C1192.89 399.101 1196.52 404.389 1199.01 410.403C1201.7 416.417 1203.05 422.846 1203.05 429.69C1203.05 437.155 1201.39 444.206 1198.07 450.842C1194.96 457.271 1190.71 462.974 1185.32 467.951C1179.93 472.721 1173.5 476.558 1166.03 479.461C1158.78 482.157 1151 483.505 1142.7 483.505H1058.72V482.261C1060.79 482.261 1062.66 481.742 1064.31 480.705C1065.56 479.668 1066.7 478.009 1067.74 475.728C1068.98 473.447 1069.6 470.233 1069.6 466.085V421.602C1069.6 411.233 1071.37 403.352 1074.89 397.961C1078.42 392.361 1082.46 388.11 1087.02 385.207L1091.07 383.029C1095.63 380.955 1100.4 379.815 1105.38 379.607C1100.81 379.4 1096.04 378.259 1091.07 376.186L1087.02 374.008C1082.46 371.105 1078.42 366.853 1074.89 361.254C1071.37 355.655 1069.6 347.671 1069.6 337.302V292.819C1069.6 288.464 1068.98 285.146 1067.74 282.864C1066.7 280.583 1065.56 278.924 1064.31 277.887C1062.66 276.85 1060.79 276.332 1058.72 276.332V275.399C1072.61 275.399 1085.05 275.295 1096.04 275.088H1134.31C1141.56 275.088 1148.3 276.436 1154.53 279.132C1160.95 281.828 1166.55 285.56 1171.32 290.33C1176.09 295.1 1179.83 300.699 1182.52 307.128C1185.22 313.349 1186.57 320.089 1186.57 327.348C1186.57 338.546 1183.35 348.604 1176.92 357.521C1170.7 366.439 1162.3 372.764 1151.73 376.497ZM1087.02 339.79C1087.02 341.864 1087.23 344.975 1087.64 349.122C1088.27 353.27 1089.2 357.314 1090.44 361.254C1091.9 365.194 1093.97 368.72 1096.67 371.831C1099.57 374.734 1103.41 376.186 1108.18 376.186H1136.79C1140.32 375.771 1143.33 375.045 1145.82 374.008C1151.21 372.142 1155.77 369.135 1159.5 364.987C1163.23 360.839 1166.03 356.173 1167.9 350.989C1169.97 345.597 1170.91 339.79 1170.7 333.569C1170.7 327.348 1169.56 321.126 1167.28 314.905C1163.96 305.987 1158.36 298.418 1150.48 292.197C1142.81 285.768 1132.02 282.553 1118.13 282.553H1087.02V339.79ZM1156.08 477.906C1162.09 476.039 1167.28 473.032 1171.63 468.885C1175.99 464.53 1179.31 459.656 1181.59 454.264C1183.87 448.665 1185.01 442.651 1185.01 436.222C1185.01 429.793 1183.66 423.365 1180.97 416.936C1176.82 407.396 1170.7 399.62 1162.61 393.606C1154.73 387.591 1146.13 384.066 1136.79 383.029H1108.18C1103.61 383.029 1099.88 384.481 1096.98 387.384C1094.28 390.287 1092.21 393.709 1090.76 397.649C1089.3 401.59 1088.27 405.634 1087.64 409.781C1087.23 413.721 1087.02 416.832 1087.02 419.113V466.085C1087.02 466.5 1087.23 467.537 1087.64 469.196C1088.06 470.647 1088.99 472.203 1090.44 473.862C1091.9 475.521 1094.07 477.076 1096.98 478.528C1099.88 479.772 1103.82 480.394 1108.8 480.394H1142.7C1144.99 480.187 1147.16 479.979 1149.24 479.772C1151.52 479.357 1153.8 478.735 1156.08 477.906Z" fill="#663319"/>
<path d="M1322.78 272.599C1337.71 272.599 1351.6 275.399 1364.46 280.998C1377.53 286.597 1388.93 294.27 1398.68 304.017C1408.43 313.557 1416.1 324.859 1421.7 337.924C1427.3 350.989 1430.1 364.883 1430.1 379.607C1430.1 394.331 1427.3 408.226 1421.7 421.291C1416.1 434.356 1408.43 445.762 1398.68 455.509C1388.93 465.048 1377.53 472.617 1364.46 478.217C1351.6 483.816 1337.71 486.616 1322.78 486.616C1308.05 486.616 1294.16 483.816 1281.09 478.217C1268.03 472.617 1256.62 465.048 1246.88 455.509C1237.13 445.762 1229.46 434.356 1223.86 421.291C1218.26 408.226 1215.46 394.331 1215.46 379.607C1215.46 364.883 1218.26 350.989 1223.86 337.924C1229.46 324.859 1237.13 313.557 1246.88 304.017C1256.62 294.27 1268.03 286.597 1281.09 280.998C1294.16 275.399 1308.05 272.599 1322.78 272.599ZM1359.48 473.551C1372.55 469.196 1383.33 462.456 1391.84 453.331C1400.34 443.999 1406.35 433.215 1409.88 420.98C1413.4 408.744 1414.44 395.576 1412.99 381.474C1411.54 367.165 1407.49 352.752 1400.86 338.235C1396.5 329.11 1391.21 320.919 1384.99 313.66C1378.98 306.402 1372.24 300.181 1364.77 294.996C1357.31 289.812 1349.32 285.871 1340.82 283.176C1332.52 280.48 1324.02 279.132 1315.31 279.132C1305.15 279.132 1294.78 281.205 1284.2 285.353C1270.73 290.745 1259.94 298.729 1251.85 309.305C1243.97 319.674 1238.48 331.08 1235.37 343.523C1232.26 355.966 1231.32 368.616 1232.57 381.474C1233.81 394.124 1236.71 405.634 1241.28 416.003C1245.01 424.298 1250.09 432.178 1256.52 439.644C1263.16 447.11 1270.62 453.642 1278.92 459.241C1287.21 464.841 1296.13 469.299 1305.67 472.617C1315.21 475.936 1324.85 477.595 1334.6 477.595C1343.31 477.595 1351.6 476.247 1359.48 473.551Z" fill="#663319"/>
<path d="M1611.57 276.643C1613.23 276.436 1614.89 276.332 1616.55 276.332C1618.42 276.125 1620.18 275.917 1621.84 275.71C1623.5 275.71 1625.26 275.606 1627.13 275.399V276.643C1624.23 276.643 1621.63 277.058 1619.35 277.887C1617.28 278.924 1615.41 280.48 1613.75 282.553C1612.09 284.42 1611.26 287.427 1611.26 291.574C1611.26 296.966 1611.26 303.499 1611.26 311.172C1611.26 318.638 1611.26 326.518 1611.26 334.813C1611.26 343.108 1611.16 351.507 1610.95 360.01C1610.95 368.513 1610.95 376.393 1610.95 383.651C1610.95 390.91 1610.95 397.235 1610.95 402.627C1610.95 408.018 1610.95 411.751 1610.95 413.825C1610.95 422.95 1609.92 431.867 1607.84 440.577C1605.77 449.287 1602.04 457.064 1596.64 463.907C1591.25 470.751 1583.68 476.247 1573.94 480.394C1564.4 484.542 1551.95 486.616 1536.61 486.616C1520.43 486.616 1506.95 484.542 1496.17 480.394C1485.59 476.247 1477.19 470.751 1470.97 463.907C1464.75 457.064 1460.39 449.287 1457.91 440.577C1455.42 431.867 1454.17 422.95 1454.17 413.825V292.819C1454.17 288.464 1453.55 285.249 1452.31 283.176C1451.27 280.894 1450.13 279.235 1448.89 278.198C1447.23 277.161 1445.36 276.643 1443.29 276.643V275.399C1446.19 275.606 1448.89 275.814 1451.37 276.021C1453.65 276.228 1455.83 276.436 1457.91 276.643C1460.19 276.643 1461.95 276.643 1463.19 276.643C1464.44 276.643 1466.1 276.643 1468.17 276.643C1470.45 276.436 1472.63 276.228 1474.7 276.021C1477.19 275.814 1479.78 275.606 1482.48 275.399V276.643C1480.41 276.643 1478.64 277.161 1477.19 278.198C1475.74 279.235 1474.39 280.894 1473.15 283.176C1472.11 285.457 1471.59 288.775 1471.59 293.13V413.825C1471.59 426.683 1473.56 437.363 1477.5 445.865C1481.65 454.368 1486.94 461.211 1493.37 466.396C1499.8 471.581 1506.85 475.21 1514.52 477.283C1522.19 479.357 1529.56 480.394 1536.61 480.394C1544.07 480.394 1551.75 479.772 1559.63 478.528C1567.71 477.076 1574.97 474.069 1581.4 469.507C1588.04 464.737 1593.43 457.997 1597.58 449.287C1601.93 440.577 1604.11 428.756 1604.11 413.825V291.263C1604.11 287.116 1603.28 284.109 1601.62 282.242C1599.96 280.376 1598.1 278.924 1596.02 277.887C1593.74 277.058 1591.04 276.643 1587.93 276.643V275.399C1589.8 275.606 1591.77 275.814 1593.84 276.021C1595.5 276.021 1597.16 276.125 1598.82 276.332C1600.69 276.332 1602.45 276.436 1604.11 276.643H1611.57Z" fill="#663319"/>
<path d="M1731.34 376.497C1738.6 377.326 1745.34 379.4 1751.56 382.718C1757.78 385.829 1763.17 389.769 1767.73 394.539C1772.5 399.101 1776.13 404.389 1778.62 410.403C1781.32 416.417 1782.66 422.846 1782.66 429.69C1782.66 437.155 1781 444.206 1777.69 450.842C1774.58 457.271 1770.32 462.974 1764.93 467.951C1759.54 472.721 1753.11 476.558 1745.65 479.461C1738.39 482.157 1730.61 483.505 1722.32 483.505H1638.33V482.261C1640.4 482.261 1642.27 481.742 1643.93 480.705C1645.17 479.668 1646.31 478.009 1647.35 475.728C1648.59 473.447 1649.21 470.233 1649.21 466.085V421.602C1649.21 411.233 1650.98 403.352 1654.5 397.961C1658.03 392.361 1662.07 388.11 1666.63 385.207L1670.68 383.029C1675.24 380.955 1680.01 379.815 1684.99 379.607C1680.43 379.4 1675.66 378.259 1670.68 376.186L1666.63 374.008C1662.07 371.105 1658.03 366.853 1654.5 361.254C1650.98 355.655 1649.21 347.671 1649.21 337.302V292.819C1649.21 288.464 1648.59 285.146 1647.35 282.864C1646.31 280.583 1645.17 278.924 1643.93 277.887C1642.27 276.85 1640.4 276.332 1638.33 276.332V275.399C1652.22 275.399 1664.66 275.295 1675.66 275.088H1713.92C1721.18 275.088 1727.92 276.436 1734.14 279.132C1740.57 281.828 1746.16 285.56 1750.93 290.33C1755.7 295.1 1759.44 300.699 1762.13 307.128C1764.83 313.349 1766.18 320.089 1766.18 327.348C1766.18 338.546 1762.96 348.604 1756.53 357.521C1750.31 366.439 1741.91 372.764 1731.34 376.497ZM1666.63 339.79C1666.63 341.864 1666.84 344.975 1667.26 349.122C1667.88 353.27 1668.81 357.314 1670.06 361.254C1671.51 365.194 1673.58 368.72 1676.28 371.831C1679.18 374.734 1683.02 376.186 1687.79 376.186H1716.41C1719.93 375.771 1722.94 375.045 1725.43 374.008C1730.82 372.142 1735.38 369.135 1739.11 364.987C1742.85 360.839 1745.65 356.173 1747.51 350.989C1749.59 345.597 1750.52 339.79 1750.31 333.569C1750.31 327.348 1749.17 321.126 1746.89 314.905C1743.57 305.987 1737.97 298.418 1730.09 292.197C1722.42 285.768 1711.64 282.553 1697.74 282.553H1666.63V339.79ZM1735.69 477.906C1741.71 476.039 1746.89 473.032 1751.25 468.885C1755.6 464.53 1758.92 459.656 1761.2 454.264C1763.48 448.665 1764.62 442.651 1764.62 436.222C1764.62 429.793 1763.27 423.365 1760.58 416.936C1756.43 407.396 1750.31 399.62 1742.22 393.606C1734.34 387.591 1725.74 384.066 1716.41 383.029H1687.79C1683.22 383.029 1679.49 384.481 1676.59 387.384C1673.89 390.287 1671.82 393.709 1670.37 397.649C1668.92 401.59 1667.88 405.634 1667.26 409.781C1666.84 413.721 1666.63 416.832 1666.63 419.113V466.085C1666.63 466.5 1666.84 467.537 1667.26 469.196C1667.67 470.647 1668.6 472.203 1670.06 473.862C1671.51 475.521 1673.69 477.076 1676.59 478.528C1679.49 479.772 1683.43 480.394 1688.41 480.394H1722.32C1724.6 480.187 1726.77 479.979 1728.85 479.772C1731.13 479.357 1733.41 478.735 1735.69 477.906Z" fill="#663319"/>
<path d="M1902.39 272.599C1917.32 272.599 1931.22 275.399 1944.07 280.998C1957.14 286.597 1968.54 294.27 1978.29 304.017C1988.04 313.557 1995.71 324.859 2001.31 337.924C2006.91 350.989 2009.71 364.883 2009.71 379.607C2009.71 394.331 2006.91 408.226 2001.31 421.291C1995.71 434.356 1988.04 445.762 1978.29 455.509C1968.54 465.048 1957.14 472.617 1944.07 478.217C1931.22 483.816 1917.32 486.616 1902.39 486.616C1887.67 486.616 1873.77 483.816 1860.71 478.217C1847.64 472.617 1836.23 465.048 1826.49 455.509C1816.74 445.762 1809.07 434.356 1803.47 421.291C1797.87 408.226 1795.07 394.331 1795.07 379.607C1795.07 364.883 1797.87 350.989 1803.47 337.924C1809.07 324.859 1816.74 313.557 1826.49 304.017C1836.23 294.27 1847.64 286.597 1860.71 280.998C1873.77 275.399 1887.67 272.599 1902.39 272.599ZM1939.1 473.551C1952.16 469.196 1962.94 462.456 1971.45 453.331C1979.95 443.999 1985.96 433.215 1989.49 420.98C1993.01 408.744 1994.05 395.576 1992.6 381.474C1991.15 367.165 1987.1 352.752 1980.47 338.235C1976.11 329.11 1970.82 320.919 1964.6 313.66C1958.59 306.402 1951.85 300.181 1944.38 294.996C1936.92 289.812 1928.93 285.871 1920.43 283.176C1912.14 280.48 1903.63 279.132 1894.92 279.132C1884.76 279.132 1874.39 281.205 1863.82 285.353C1850.34 290.745 1839.55 298.729 1831.47 309.305C1823.58 319.674 1818.09 331.08 1814.98 343.523C1811.87 355.966 1810.93 368.616 1812.18 381.474C1813.42 394.124 1816.33 405.634 1820.89 416.003C1824.62 424.298 1829.7 432.178 1836.13 439.644C1842.77 447.11 1850.23 453.642 1858.53 459.241C1866.82 464.841 1875.74 469.299 1885.28 472.617C1894.82 475.936 1904.46 477.595 1914.21 477.595C1922.92 477.595 1931.22 476.247 1939.1 473.551Z" fill="#663319"/>
<path d="M2191.19 276.643C2192.85 276.436 2194.5 276.332 2196.16 276.332C2198.03 276.125 2199.79 275.917 2201.45 275.71C2203.11 275.71 2204.87 275.606 2206.74 275.399V276.643C2203.84 276.643 2201.24 277.058 2198.96 277.887C2196.89 278.924 2195.02 280.48 2193.36 282.553C2191.71 284.42 2190.88 287.427 2190.88 291.574C2190.88 296.966 2190.88 303.499 2190.88 311.172C2190.88 318.638 2190.88 326.518 2190.88 334.813C2190.88 343.108 2190.77 351.507 2190.56 360.01C2190.56 368.513 2190.56 376.393 2190.56 383.651C2190.56 390.91 2190.56 397.235 2190.56 402.627C2190.56 408.018 2190.56 411.751 2190.56 413.825C2190.56 422.95 2189.53 431.867 2187.45 440.577C2185.38 449.287 2181.65 457.064 2176.26 463.907C2170.86 470.751 2163.29 476.247 2153.55 480.394C2144.01 484.542 2131.56 486.616 2116.22 486.616C2100.04 486.616 2086.56 484.542 2075.78 480.394C2065.2 476.247 2056.8 470.751 2050.58 463.907C2044.36 457.064 2040.01 449.287 2037.52 440.577C2035.03 431.867 2033.79 422.95 2033.79 413.825V292.819C2033.79 288.464 2033.16 285.249 2031.92 283.176C2030.88 280.894 2029.74 279.235 2028.5 278.198C2026.84 277.161 2024.97 276.643 2022.9 276.643V275.399C2025.8 275.606 2028.5 275.814 2030.99 276.021C2033.27 276.228 2035.44 276.436 2037.52 276.643C2039.8 276.643 2041.56 276.643 2042.81 276.643C2044.05 276.643 2045.71 276.643 2047.78 276.643C2050.06 276.436 2052.24 276.228 2054.32 276.021C2056.8 275.814 2059.4 275.606 2062.09 275.399V276.643C2060.02 276.643 2058.26 277.161 2056.8 278.198C2055.35 279.235 2054 280.894 2052.76 283.176C2051.72 285.457 2051.2 288.775 2051.2 293.13V413.825C2051.2 426.683 2053.18 437.363 2057.12 445.865C2061.26 454.368 2066.55 461.211 2072.98 466.396C2079.41 471.581 2086.46 475.21 2094.13 477.283C2101.81 479.357 2109.17 480.394 2116.22 480.394C2123.68 480.394 2131.36 479.772 2139.24 478.528C2147.33 477.076 2154.58 474.069 2161.01 469.507C2167.65 464.737 2173.04 457.997 2177.19 449.287C2181.54 440.577 2183.72 428.756 2183.72 413.825V291.263C2183.72 287.116 2182.89 284.109 2181.23 282.242C2179.57 280.376 2177.71 278.924 2175.63 277.887C2173.35 277.058 2170.66 276.643 2167.55 276.643V275.399C2169.41 275.606 2171.38 275.814 2173.46 276.021C2175.11 276.021 2176.77 276.125 2178.43 276.332C2180.3 276.332 2182.06 276.436 2183.72 276.643H2191.19Z" fill="#663319"/>
</svg>
